<?xml version="1.0" encoding="UTF-8"?><svg id="Capa_2" xmlns="http://www.w3.org/2000/svg" viewBox="0 0 23.96 10.22"><defs><style>.cls-1{fill:#fff;}</style></defs><g id="Capa_1-2"><g><path class="cls-1" d="M2.64,9.96H0L2.29,1.86c.05-.16,.08-.32,.08-.46,0-.14,0-.26-.05-.35s-.13-.13-.28-.13c-.21,0-.41,.11-.6,.34-.19,.23-.38,.61-.58,1.14l-.36,.96H.15L.66,1.93C.92,1.19,1.28,.69,1.74,.41s.94-.41,1.44-.41c.56,0,.96,.14,1.18,.41,.23,.27,.34,.61,.34,1.01s-.06,.8-.17,1.2l-1.89,7.33ZM7.18,2.17c.1-.31,.15-.58,.16-.8s-.1-.33-.31-.33c-.29,0-.59,.17-.92,.52s-.66,.83-1,1.45c-.34,.63-.68,1.37-1.02,2.23-.34,.86-.66,1.81-.96,2.83l.09-1.29c.52-1.66,1.04-2.99,1.54-3.98,.5-.99,1.04-1.71,1.61-2.15,.57-.44,1.22-.66,1.95-.66,.55,0,.93,.13,1.15,.38,.22,.26,.33,.6,.33,1.03s-.07,.9-.22,1.42l-2.01,7.12h-2.68L7.18,2.17Zm5.01,0c.11-.32,.17-.59,.16-.81,0-.21-.1-.32-.27-.32-.31,0-.69,.26-1.12,.78-.44,.52-.9,1.31-1.39,2.38-.49,1.07-.99,2.42-1.5,4.06l.04-1.01c.45-1.42,.88-2.61,1.28-3.54s.82-1.68,1.24-2.22c.42-.54,.85-.93,1.3-1.15,.45-.23,.93-.34,1.44-.34s.92,.13,1.16,.38c.24,.26,.36,.6,.37,1.02,0,.43-.08,.9-.25,1.42l-1.84,5.53c-.13,.36-.15,.61-.08,.74,.07,.13,.18,.2,.33,.2,.16,0,.34-.09,.54-.27,.2-.18,.41-.58,.64-1.21l.34-.9h.36l-.47,1.37c-.28,.79-.65,1.31-1.13,1.56-.48,.25-.94,.38-1.41,.38-.36,0-.67-.06-.92-.18-.25-.12-.44-.28-.58-.5-.16-.25-.23-.57-.22-.96,.02-.39,.12-.84,.29-1.35l1.69-5.06Z"/><path class="cls-1" d="M16.83,9.96V0h3.37c.78,0,1.42,.13,1.91,.4,.5,.27,.87,.63,1.11,1.09,.24,.46,.36,.99,.36,1.57s-.12,1.1-.36,1.56c-.24,.45-.61,.81-1.1,1.07-.5,.26-1.13,.38-1.91,.38h-2.71v-1.08h2.67c.53,0,.96-.08,1.29-.23,.33-.16,.56-.38,.71-.67,.15-.29,.22-.63,.22-1.03s-.07-.75-.22-1.05c-.15-.3-.39-.53-.71-.7-.33-.16-.76-.25-1.3-.25h-2.12V9.96h-1.2Zm5.73,0l-2.41-4.48h1.36l2.45,4.48h-1.4Z"/></g></g></svg>